# xmcd CD database file generated by Grip 3.3.1
# 
# Track frame offsets:
#       150
#       17532
#       33767
#       51227
# 
# Disc length: 897 seconds
# 
# Revision: 3
# Processed by: cddbd v1.5.1PL2 Copyright (c) Steve Scherf et al.
# Submitted via: Grip 3.3.1
# 
DISCID=24037f04
DTITLE=梶芽衣子 (Kaji Meiko) - 修羅の花 (Shura no Hana)
DYEAR=2003
DGENRE=Latin
TTITLE0=修羅の花 (Shura no Hana)
TTITLE1=怨み節 (Uramibushi)
TTITLE2=修羅の花 (Shura no Hana)(Off Vocal)
TTITLE3=怨み節 (Uramibushi)(Off Vocal)
EXTD=
EXTT0=
EXTT1=
EXTT2=
EXTT3=
PLAYORDER=
